<?xml version="1.0" standalone="no"?>
<!DOCTYPE svg PUBLIC "-//W3C//DTD SVG 20010904//EN"
 "http://www.w3.org/TR/2001/REC-SVG-20010904/DTD/svg10.dtd">
<svg version="1.0" xmlns="http://www.w3.org/2000/svg"
 width="900.000000pt" height="900.000000pt" viewBox="0 0 900.000000 900.000000"
 preserveAspectRatio="xMidYMid meet">

<g transform="translate(0.000000,900.000000) scale(0.100000,-0.100000)"
fill="#e76f51" stroke="none">
<path d="M4155 8644 c-16 -2 -84 -11 -150 -20 -403 -52 -717 -132 -1055 -266
-1242 -494 -2186 -1581 -2495 -2873 -43 -179 -49 -214 -80 -422 -23 -161 -25
-198 -25 -558 0 -361 2 -397 25 -558 35 -234 47 -297 94 -477 122 -472 283
-833 556 -1250 515 -784 1291 -1376 2182 -1664 518 -167 1135 -240 1611 -191
748 78 1344 283 1925 660 478 311 888 719 1201 1195 133 201 161 249 239 405
191 379 323 775 386 1155 57 352 56 334 56 730 -1 373 -1 376 -33 579 -54 343
-120 596 -234 901 -53 144 -216 484 -273 575 -19 30 -35 57 -35 60 0 5 -143
224 -197 300 -198 282 -504 601 -809 843 -292 231 -680 456 -1013 586 -258
102 -572 192 -796 230 -325 55 -359 58 -710 61 -187 2 -353 1 -370 -1z m466
-1797 c190 -48 469 -142 564 -190 261 -130 418 -315 486 -572 21 -79 23 -111
23 -265 -1 -152 -4 -190 -27 -292 -33 -142 -33 -176 -5 -231 26 -52 27 -161 3
-264 -9 -38 -21 -88 -27 -113 -6 -25 -26 -69 -45 -99 -24 -37 -44 -89 -63
-166 -43 -169 -149 -401 -239 -525 -198 -270 -418 -443 -640 -502 -91 -24
-232 -28 -311 -9 -64 15 -218 87 -274 128 -117 84 -314 300 -387 425 -97 164
-174 357 -204 511 -10 54 -25 92 -49 129 -58 88 -110 334 -92 431 4 19 20 52
36 72 36 46 36 54 9 267 -26 198 -23 465 6 558 87 282 309 528 613 680 106 53
130 61 227 70 127 13 209 4 396 -43z m-738 -3207 c120 -97 280 -185 392 -215
84 -23 239 -30 332 -15 165 26 309 92 477 217 54 40 102 73 106 73 4 0 22 -11
41 -25 187 -137 320 -208 540 -289 96 -35 224 -85 284 -111 61 -26 139 -58
175 -71 132 -50 290 -151 339 -217 154 -205 310 -700 375 -1192 38 -293 46
-364 41 -376 -7 -17 -254 -201 -342 -256 -34 -21 -99 -61 -145 -89 -191 -117
-600 -300 -790 -353 -43 -12 -103 -31 -135 -42 -182 -62 -607 -132 -908 -148
-401 -22 -923 41 -1285 154 -58 18 -125 39 -150 45 -91 24 -394 152 -548 231
-86 44 -216 117 -288 162 -141 88 -400 274 -408 294 -10 23 46 444 84 643 62
319 156 623 242 780 115 210 222 292 513 394 242 84 321 114 464 179 199 91
312 162 396 246 38 39 73 71 78 71 4 0 58 -41 120 -90z"/>
</g>
</svg>
